<!-- rainy.svg -->
<svg width="64" height="64" viewBox="0 0 64 64" fill="none" xmlns="http://www.w3.org/2000/svg">
  <!-- Cloud -->
  <path d="M20 38H48C52.4183 38 56 34.4183 56 30C56 25.5817 52.4183 22 48 22C47.4877 22 46.9866 22.0518 46.5 22.1511C44.9445 16.9962 40.1245 13 34.5 13C29.0301 13 24.4621 16.7146 23.0843 21.7346C22.7292 21.6279 22.3641 21.5547 21.9937 21.5167C17.5186 21.0502 14 24.4705 14 29C14 33.5228 17.4772 38 22 38H20Z" fill="#888"></path>
  <!-- Blue Raindrops -->
  <path d="M24 44C24 42.8954 23.1046 42 22 42C20.8954 42 20 42.8954 20 44C20 45.1046 21 47 22 47C23 47 24 45.1046 24 44Z" fill="#1E90FF"></path>
  <path d="M34 44C34 42.8954 33.1046 42 32 42C30.8954 42 30 42.8954 30 44C30 45.1046 31 47 32 47C33 47 34 45.1046 34 44Z" fill="#1E90FF"></path>
  <path d="M44 44C44 42.8954 43.1046 42 42 42C40.8954 42 40 42.8954 40 44C40 45.1046 41 47 42 47C43 47 44 45.1046 44 44Z" fill="#1E90FF"></path>
</svg>
